HIERARCHY
ROOT Crab_Bone_002
{
	OFFSET 0.000001 1.809483 1.070690
	CHANNELS 6 Xposition Yposition Zposition Xrotation Yrotation Zrotation
	JOINT Crab_Bone_003
	{
		OFFSET -0.001212 -3.444643 1.330027
		CHANNELS 3 Xrotation Yrotation Zrotation
		JOINT Crab_Bone_004
		{
			OFFSET -0.000258 -0.734549 0.283620
			CHANNELS 3 Xrotation Yrotation Zrotation
			JOINT Crab_Bone_005
			{
				OFFSET -2.212137 2.996329 -3.161722
				CHANNELS 3 Xrotation Yrotation Zrotation
				JOINT Crab_Bone_006
				{
					OFFSET -2.363831 -0.999774 0.737129
					CHANNELS 3 Xrotation Yrotation Zrotation
					JOINT Crab_Bone_007
					{
						OFFSET 0.679981 -1.781121 0.391521
						CHANNELS 3 Xrotation Yrotation Zrotation
						JOINT Crab_Bone_012
						{
							OFFSET 0.167619 -0.705615 0.156840
							CHANNELS 3 Xrotation Yrotation Zrotation
							JOINT Crab_Bone_013
							{
								OFFSET 1.027711 -2.075420 1.136799
								CHANNELS 3 Xrotation Yrotation Zrotation
								End Site
								{
									OFFSET 0.059793 0.725938 2.474936
								}
							}
						}
						JOINT Crab_Bone_014
						{
							OFFSET 0.169967 -0.716239 0.177733
							CHANNELS 3 Xrotation Yrotation Zrotation
							JOINT Crab_Bone_015
							{
								OFFSET 1.177098 -2.213120 -0.871869
								CHANNELS 3 Xrotation Yrotation Zrotation
								End Site
								{
									OFFSET -0.140401 -0.651721 2.568885
								}
							}
						}
					}
				}
			}
		}
		JOINT Crab_Bone_008
		{
			OFFSET -0.000258 -0.734549 0.283620
			CHANNELS 3 Xrotation Yrotation Zrotation
			JOINT Crab_Bone_009
			{
				OFFSET 2.536297 2.452007 -2.009468
				CHANNELS 3 Xrotation Yrotation Zrotation
				JOINT Crab_Bone_010
				{
					OFFSET 1.536116 -0.822250 0.380907
					CHANNELS 3 Xrotation Yrotation Zrotation
					JOINT Crab_Bone_011
					{
						OFFSET -0.216882 -1.545392 0.401011
						CHANNELS 3 Xrotation Yrotation Zrotation
						JOINT Crab_Bone_016
						{
							OFFSET -0.105369 -0.640233 0.098495
							CHANNELS 3 Xrotation Yrotation Zrotation
							JOINT Crab_Bone_017
							{
								OFFSET -0.877063 -1.746863 0.622338
								CHANNELS 3 Xrotation Yrotation Zrotation
								End Site
								{
									OFFSET 0.058713 0.817211 1.880637
								}
							}
						}
						JOINT Crab_Bone_018
						{
							OFFSET -0.117790 -0.696131 0.111856
							CHANNELS 3 Xrotation Yrotation Zrotation
							JOINT Crab_Bone_019
							{
								OFFSET -0.774615 -2.143309 -0.762011
								CHANNELS 3 Xrotation Yrotation Zrotation
								End Site
								{
									OFFSET 0.098373 -1.177132 2.092640
								}
							}
						}
					}
				}
			}
		}
	}
	JOINT Crab_Bone_020
	{
		OFFSET -1.116273 -0.154590 -0.374501
		CHANNELS 3 Xrotation Yrotation Zrotation
		JOINT Crab_Bone_021
		{
			OFFSET -3.118662 1.611093 1.513430
			CHANNELS 3 Xrotation Yrotation Zrotation
			JOINT Crab_Bone_022
			{
				OFFSET -1.588351 2.658805 -1.742729
				CHANNELS 3 Xrotation Yrotation Zrotation
				End Site
				{
					OFFSET -3.122031 -1.424496 0.923547
				}
			}
		}
	}
	JOINT Crab_Bone_023
	{
		OFFSET -1.485358 -0.679445 -0.384127
		CHANNELS 3 Xrotation Yrotation Zrotation
		JOINT Crab_Bone_024
		{
			OFFSET -4.354937 1.041430 2.735311
			CHANNELS 3 Xrotation Yrotation Zrotation
			JOINT Crab_Bone_025
			{
				OFFSET -3.146346 1.140532 -2.766851
				CHANNELS 3 Xrotation Yrotation Zrotation
				End Site
				{
					OFFSET -1.594861 -4.033993 0.197688
				}
			}
		}
	}
	JOINT Crab_Bone_026
	{
		OFFSET -1.641655 -1.332070 -0.435368
		CHANNELS 3 Xrotation Yrotation Zrotation
		JOINT Crab_Bone_027
		{
			OFFSET -4.159019 0.186248 1.795406
			CHANNELS 3 Xrotation Yrotation Zrotation
			JOINT Crab_Bone_028
			{
				OFFSET -3.475782 0.547989 -1.456533
				CHANNELS 3 Xrotation Yrotation Zrotation
				End Site
				{
					OFFSET -0.634418 -3.753667 0.101702
				}
			}
		}
	}
	JOINT Crab_Bone_029
	{
		OFFSET -1.691511 -1.877323 -0.077977
		CHANNELS 3 Xrotation Yrotation Zrotation
		JOINT Crab_Bone_030
		{
			OFFSET -4.567539 -1.546834 1.375860
			CHANNELS 3 Xrotation Yrotation Zrotation
			JOINT Crab_Bone_031
			{
				OFFSET -2.285981 -1.723023 -1.671352
				CHANNELS 3 Xrotation Yrotation Zrotation
				End Site
				{
					OFFSET 2.513823 -2.117836 -0.428249
				}
			}
		}
	}
	JOINT Crab_Bone_020_Bis
	{
		OFFSET 1.052121 -0.155333 -0.407179
		CHANNELS 3 Xrotation Yrotation Zrotation
		JOINT Crab_Bone_021_Bis
		{
			OFFSET 3.269777 1.689566 1.700762
			CHANNELS 3 Xrotation Yrotation Zrotation
			JOINT Crab_Bone_022_Bis
			{
				OFFSET 1.433824 3.291166 -1.667421
				CHANNELS 3 Xrotation Yrotation Zrotation
				End Site
				{
					OFFSET -3.624812 1.364690 -0.816260
				}
			}
		}
	}
	JOINT Crab_Bone_023_Bis
	{
		OFFSET 1.420852 -0.680440 -0.618396
		CHANNELS 3 Xrotation Yrotation Zrotation
		JOINT Crab_Bone_024_Bis
		{
			OFFSET 3.158329 0.755220 2.314403
			CHANNELS 3 Xrotation Yrotation Zrotation
			JOINT Crab_Bone_025_Bis
			{
				OFFSET 3.724785 1.320794 -2.253904
				CHANNELS 3 Xrotation Yrotation Zrotation
				End Site
				{
					OFFSET -1.615193 4.246540 -0.238007
				}
			}
		}
	}
	JOINT Crab_Bone_026_Bis
	{
		OFFSET 1.576704 -1.333172 -0.624875
		CHANNELS 3 Xrotation Yrotation Zrotation
		JOINT Crab_Bone_027_Bis
		{
			OFFSET 3.858073 0.173228 2.214125
			CHANNELS 3 Xrotation Yrotation Zrotation
			JOINT Crab_Bone_028_Bis
			{
				OFFSET 3.076779 0.421557 -1.941671
				CHANNELS 3 Xrotation Yrotation Zrotation
				End Site
				{
					OFFSET -0.558715 3.617706 -0.120044
				}
			}
		}
	}
	JOINT Crab_Bone_029_Bis
	{
		OFFSET 1.626128 -2.007151 -0.390477
		CHANNELS 3 Xrotation Yrotation Zrotation
		JOINT Crab_Bone_030_Bis
		{
			OFFSET 3.013092 -0.711103 1.404963
			CHANNELS 3 Xrotation Yrotation Zrotation
			JOINT Crab_Bone_031_Bis
			{
				OFFSET 2.645858 -2.135076 -1.922209
				CHANNELS 3 Xrotation Yrotation Zrotation
				End Site
				{
					OFFSET 2.656470 2.760786 0.758435
				}
			}
		}
	}
}
MOTION
Frames: 5
Frame Time: 0.040000
0.000000 1.809483 1.070688 -0.004752 -0.457871 -1.169878 -0.000008 -0.000004 -0.000006 0.939415 0.040357 -3.317336 0.126712 -1.373061 -1.398610 -3.414450 2.503450 20.225194 0.000002 0.000002 -0.000002 4.945130 2.468213 -0.070485 0.000009 -0.000004 0.000010 -7.092779 -3.775533 -0.201590 0.000006 -0.000001 0.000007 -0.673807 -2.950551 -4.438412 0.300554 1.980423 2.843321 -2.356618 -8.061284 -32.830004 0.000003 -0.000002 -0.000004 1.425907 0.851959 4.282349 0.000004 0.000002 0.000009 13.099378 -5.849000 6.053380 -0.000006 0.000005 0.000007 9.704569 13.892548 10.541114 -35.506701 -23.488209 -31.861688 -0.000006 0.000004 0.000016 -1.219043 -4.340522 2.193694 2.900307 10.148101 0.573821 -0.000004 -0.000007 0.000006 0.017397 29.988799 8.277860 -17.996910 -59.532175 -19.298592 -0.000000 0.000005 0.000002 1.400067 -3.224141 -3.798103 -3.988405 9.383945 -3.405240 -0.000015 0.000017 0.000007 0.561578 0.561972 -10.952878 -0.572281 0.531350 0.567160 -0.000008 -0.000000 -0.000004 6.884575 -23.246421 -0.819151 -19.193644 43.860388 11.913911 -0.000002 0.000002 -0.000007 0.114804 -4.620731 -4.186683 -1.114280 11.397079 0.986022 0.000001 0.000002 0.000003 -4.848105 -18.634424 13.238162 38.157723 39.290974 -38.859511 0.000011 0.000003 -0.000002 
0.000000 1.809483 1.070688 -0.004561 -0.449057 -1.147041 -0.000010 -0.000004 -0.000006 0.938622 0.084020 -3.299788 0.126028 -1.364642 -1.390048 -3.414453 2.503452 20.225194 0.000001 0.000003 -0.000003 4.945130 2.468212 -0.070493 0.000007 -0.000002 0.000010 -7.092779 -3.775531 -0.201594 0.000007 0.000002 0.000002 -0.672372 -2.937619 -4.489088 0.308422 2.043041 2.932762 -2.356618 -8.061283 -32.830001 0.000003 -0.000004 -0.000004 1.426943 0.850660 4.279916 0.000003 0.000003 0.000011 13.099372 -5.848996 6.053386 0.000003 0.000005 0.000003 11.340502 15.923599 10.619938 -33.888356 -23.011546 -30.365413 -0.000005 0.000003 0.000016 -1.023951 -3.535239 2.202091 2.429789 8.487774 0.513837 -0.000004 -0.000006 0.000008 0.203846 30.165397 8.088797 -15.383898 -56.406714 -16.661422 -0.000000 0.000009 0.000002 0.978621 -2.059509 -4.790402 -2.842958 6.537395 -2.443317 -0.000014 0.000016 0.000007 1.137572 -0.171861 -11.946176 -2.055519 1.861240 2.039094 -0.000009 0.000001 -0.000002 7.528354 -25.131679 -0.644669 -17.644812 41.736578 10.667742 -0.000004 0.000004 -0.000011 0.145088 -6.496534 -4.355504 -1.570677 15.471186 1.408471 0.000001 0.000000 0.000001 -5.960695 -20.861078 13.226835 35.059453 38.004655 -35.741598 0.000009 0.000003 -0.000010 
0.000000 1.809483 1.070689 -0.004114 -0.426449 -1.088485 -0.000006 -0.000004 -0.000006 0.935641 0.197079 -3.254401 0.124265 -1.342672 -1.367717 -3.414450 2.503449 20.225191 0.000002 0.000003 -0.000002 4.945127 2.468212 -0.070487 0.000006 -0.000003 0.000012 -7.092780 -3.775535 -0.201591 0.000008 0.000000 0.000005 -0.710666 -2.834723 -4.511469 0.309943 2.055237 2.950193 -2.356615 -8.061282 -32.829998 0.000004 -0.000003 -0.000005 1.429801 0.847096 4.273181 0.000002 0.000002 0.000011 13.099377 -5.848997 6.053386 -0.000006 0.000001 0.000005 14.366815 19.817169 10.472760 -29.322777 -21.420136 -26.156020 -0.000004 0.000005 0.000016 -0.541671 -1.561286 2.164718 1.270217 4.403391 0.308839 -0.000004 -0.000009 0.000005 0.633916 29.685546 7.558279 -10.628836 -48.550235 -11.857606 -0.000000 0.000005 0.000002 0.239196 0.072117 -6.074007 -0.608072 1.329047 -0.524156 -0.000017 0.000015 0.000006 2.039265 -1.478337 -12.978550 -4.667445 4.037917 4.631142 -0.000009 0.000000 -0.000002 8.527554 -27.983946 -0.317433 -13.859902 35.772511 7.838667 -0.000001 0.000001 -0.000005 0.180679 -8.724850 -4.600027 -2.158341 20.299647 1.975500 0.000001 -0.000001 0.000003 -7.847003 -24.437556 12.738940 27.468950 33.953765 -28.095309 0.000011 0.000002 -0.000012 
0.000000 1.809483 1.070689 -0.003489 -0.392569 -1.000729 -0.000005 -0.000004 -0.000006 0.957066 0.361762 -3.178502 0.121731 -1.311324 -1.335852 -3.414449 2.503450 20.225189 -0.000002 0.000002 -0.000004 4.945127 2.468213 -0.070488 0.000005 -0.000003 0.000012 -7.092783 -3.775534 -0.201591 0.000009 0.000001 0.000004 -0.738799 -2.651905 -4.519759 0.306222 2.025556 2.907796 -2.356616 -8.061284 -32.829994 0.000004 -0.000003 -0.000008 1.434425 0.841306 4.262281 0.000005 0.000002 0.000011 13.099378 -5.848998 6.053381 -0.000005 0.000002 0.000005 16.781088 23.081566 9.901169 -22.407113 -18.253942 -19.812890 -0.000005 0.000006 0.000017 0.167134 1.177730 2.036809 -0.377473 -1.313729 -0.116359 -0.000002 -0.000004 -0.000000 1.059480 27.477204 6.756445 -6.465379 -37.248819 -7.314557 0.000000 0.000016 0.000003 -0.587770 2.701450 -7.445186 2.432600 -5.048542 2.159729 -0.000011 0.000014 0.000011 3.154007 -3.166526 -13.909523 -8.154852 6.636251 8.092661 -0.000007 0.000000 -0.000004 8.878029 -28.965234 -0.163597 -9.263212 26.641954 4.716451 -0.000003 -0.000003 -0.000010 0.181093 -11.159260 -4.904376 -2.886496 25.521565 2.671358 0.000000 0.000004 0.000001 -9.081194 -26.160914 11.560656 18.010478 26.576765 -18.511462 0.000012 -0.000001 -0.000006 
0.000000 1.809483 1.070688 -0.002771 -0.350037 -0.890547 -0.000008 -0.000004 -0.000006 0.966837 0.574170 -3.085821 0.118735 -1.274475 -1.298381 -3.414453 2.503450 20.225194 0.000001 0.000003 -0.000002 4.945120 2.468210 -0.070493 0.000008 -0.000004 0.000014 -7.092779 -3.775533 -0.201593 0.000006 0.000000 0.000007 -0.772395 -2.408834 -4.513723 0.298368 1.963243 2.818756 -2.356616 -8.061283 -32.830001 0.000004 -0.000002 -0.000007 1.440772 0.833370 4.247339 0.000004 0.000004 0.000006 13.099379 -5.848997 6.053382 -0.000002 0.000001 0.000007 17.583118 24.306922 9.282695 -15.182175 -13.823439 -13.239200 -0.000009 0.000004 0.000010 1.026753 4.328516 1.776843 -2.341983 -7.993236 -0.857888 -0.000003 -0.000004 0.000005 1.296547 23.618825 5.878493 -3.547314 -24.598168 -3.986701 -0.000000 0.000009 0.000004 -1.352844 5.498067 -8.771203 6.113865 -11.759656 5.492766 -0.000016 0.000016 0.000009 4.379545 -5.068958 -14.608473 -12.270436 9.286110 12.179316 -0.000010 0.000002 -0.000006 8.329251 -27.400665 -0.353965 -5.330963 16.071503 2.010516 -0.000002 0.000002 -0.000011 0.145381 -13.676790 -5.254346 -3.809138 30.976001 3.477075 0.000000 -0.000001 0.000003 -9.122694 -25.132304 10.140042 9.832341 17.103026 -10.092597 0.000014 0.000000 -0.000000 
